<svg xmlns="http://www.w3.org/2000/svg" xmlns:xlink="http://www.w3.org/1999/xlink" width="374" height="131" viewBox="0 0 374 131">
  <defs>
    <clipPath id="clip-path">
      <path id="Rectangle_2126" data-name="Rectangle 2126" d="M4,0H370a4,4,0,0,1,4,4V131a0,0,0,0,1,0,0H0a0,0,0,0,1,0,0V4A4,4,0,0,1,4,0Z" transform="translate(40)" fill="#50e1b8"/>
    </clipPath>
  </defs>
  <g id="Mask_Group_128" data-name="Mask Group 128" transform="translate(-40)" opacity="0.5" clip-path="url(#clip-path)">
    <g id="Group_10881" data-name="Group 10881" transform="translate(165 -58)">
      <path id="Path_10007" data-name="Path 10007" d="M1336.268,479.543c-25.937-24.735-60.68-38.362-97.832-38.37a143.437,143.437,0,0,0-53.684,10.276,138.075,138.075,0,0,0-43.834,28.023,130.24,130.24,0,0,0-29.557,41.577,124.291,124.291,0,0,0-10.857,50.93,128.161,128.161,0,0,0,33.915,86.776,136.606,136.606,0,0,0,68.181,40.1,3.109,3.109,0,0,1,2.385,3.012l-.02,68.056a1.551,1.551,0,0,0,2.195,1.412l21.581-9.833c1.5-.684,37.127-17.083,73.042-48.047,21.357-18.415,38.438-38.221,50.766-58.875,15.754-26.39,23.745-54.159,23.753-82.536C1376.31,537.022,1362.095,504.172,1336.268,479.543ZM1323.9,638.684c-10.486,17.673-25.225,34.809-43.81,50.929a326.639,326.639,0,0,1-39.332,29.4,1.549,1.549,0,0,1-2.371-1.314l.01-42.081a3.1,3.1,0,0,0-2.689-3.079c-11.059-1.487-53.53-8.735-76.255-34.446-16.3-18.436-25.78-41.618-25.775-66.111a95.842,95.842,0,0,1,.89-12.789c4.38-31.325,28.48-48,53.789-47.994,21.566.005,40.144,12.119,48.656,29.315a1.547,1.547,0,0,0,2.787,0c8.518-17.193,27.1-29.3,48.671-29.293,24.686,0,48.184,15.583,53.376,45.432a93.518,93.518,0,0,1,1.273,15.376C1343.119,594.776,1336.653,617.2,1323.9,638.684Zm-69.52-37.271c0,8.621-10.765,28.436-14.619,35.246a1.545,1.545,0,0,1-2.7,0c-3.851-6.81-14.619-26.625-14.619-35.246,0-8.157,7.149-15.134,15.967-15.134S1254.384,593.256,1254.384,601.413Z" transform="translate(-1100.504 -441.173)" fill="#fff"/>
      <g id="Group_10879" data-name="Group 10879" transform="translate(166.267 121.292)">
        <path id="Path_10008" data-name="Path 10008" d="M1220.307,524.8a65.613,65.613,0,0,1-17.229-2.237,4.178,4.178,0,0,1,2.2-8.061c16.859,4.595,32.513-.485,32.67-.537a4.178,4.178,0,0,1,2.655,7.923A69.1,69.1,0,0,1,1220.307,524.8Z" transform="translate(-1200 -513.756)" fill="#fff"/>
      </g>
      <g id="Group_10880" data-name="Group 10880" transform="translate(66.001 121.292)">
        <path id="Path_10009" data-name="Path 10009" d="M1160.307,524.8a65.6,65.6,0,0,1-17.227-2.237,4.178,4.178,0,1,1,2.2-8.061c16.861,4.595,32.512-.485,32.672-.537a4.178,4.178,0,0,1,2.654,7.923A69.1,69.1,0,0,1,1160.307,524.8Z" transform="translate(-1139.999 -513.756)" fill="#fff"/>
      </g>
    </g>
  </g>
</svg>
