<svg xmlns="http://www.w3.org/2000/svg" xmlns:xlink="http://www.w3.org/1999/xlink" width="374" height="131" viewBox="0 0 374 131">
  <defs>
    <clipPath id="clip-path">
      <path id="Rectangle_2107" data-name="Rectangle 2107" d="M4,0H370a4,4,0,0,1,4,4V131a0,0,0,0,1,0,0H0a0,0,0,0,1,0,0V4A4,4,0,0,1,4,0Z" transform="translate(40)" fill="#50e1b8"/>
    </clipPath>
  </defs>
  <g id="Mask_Group_124" data-name="Mask Group 124" transform="translate(-40)" opacity="0.5" clip-path="url(#clip-path)">
    <path id="Path_9999" data-name="Path 9999" d="M1781.771,479.543c-25.936-24.735-60.682-38.362-97.83-38.37a143.44,143.44,0,0,0-53.684,10.276,138.086,138.086,0,0,0-43.837,28.023,130.24,130.24,0,0,0-29.555,41.577,124.307,124.307,0,0,0-10.857,50.93,128.155,128.155,0,0,0,33.918,86.776,136.592,136.592,0,0,0,68.176,40.1,3.11,3.11,0,0,1,2.389,3.012l-.021,68.056a1.552,1.552,0,0,0,2.2,1.412l21.58-9.833c1.5-.684,37.128-17.083,73.043-48.047,21.356-18.415,38.437-38.221,50.764-58.875,15.756-26.39,23.747-54.159,23.754-82.536C1821.814,537.022,1807.6,504.172,1781.771,479.543Zm6.739,97.5c-.088,2.109-.239,4.216-.438,6.319-.073.6-.13.936-.13.936l.052-.063c-1.9,18.553-8.122,36.817-18.585,54.449-10.486,17.673-25.226,34.809-43.812,50.929a326.212,326.212,0,0,1-39.331,29.4,1.55,1.55,0,0,1-2.372-1.314l.012-42.081a3.1,3.1,0,0,0-2.687-3.079c-11.062-1.487-53.533-8.735-76.261-34.446-14.224-16.095-23.255-35.806-25.318-56.846a47.908,47.908,0,0,1,.79-14.752q.725-2.266,1.6-4.4a6.8,6.8,0,0,0,.272-.668c9.161-21.6,29.432-32.972,50.539-32.968,22.026.005,41,12.374,49.687,29.936a1.581,1.581,0,0,0,2.848,0c8.7-17.557,27.679-29.918,49.7-29.913,21.048,0,41.235,11.105,50.416,32.507a5.821,5.821,0,0,0,.515,1.352c.091.182.176.371.263.559q.576,1.486,1.079,3.035A40.541,40.541,0,0,1,1788.51,577.043Zm-137.761-4.563a22.911,22.911,0,0,1-42.759,9.629,4.171,4.171,0,0,1,7.229-4.1,14.635,14.635,0,0,0,27.255-6.118,4.206,4.206,0,0,1,4.137-3.859h.316A4.17,4.17,0,0,1,1650.749,572.48Zm109.336,9.6a22.931,22.931,0,0,1-42.8-9.631,4.173,4.173,0,0,1,3.858-4.45h.313a4.21,4.21,0,0,1,4.174,3.861,14.6,14.6,0,0,0,27.22,6.117,4.138,4.138,0,0,1,5.354-1.5A4.211,4.211,0,0,1,1760.085,582.078Zm-60.042,28.733c0,8.621-10.771,28.435-14.619,35.245a1.548,1.548,0,0,1-2.7,0c-3.851-6.81-14.618-26.624-14.618-35.245,0-8.157,7.15-15.133,15.967-15.133S1700.043,602.655,1700.043,610.811Z" transform="translate(-1382.008 -499.173)" fill="#fff"/>
  </g>
</svg>
