<svg height="131" viewBox="0 0 374 131" width="374" xmlns="http://www.w3.org/2000/svg" xmlns:xlink="http://www.w3.org/1999/xlink"><clipPath id="a"><path d="m4 0h366a4 4 0 0 1 4 4v127a0 0 0 0 1 0 0h-374a0 0 0 0 1 0 0v-127a4 4 0 0 1 4-4z" transform="translate(40)"/></clipPath><g clip-path="url(#a)" fill="#fff" opacity=".5" transform="translate(-40)"><path d="m113.738 931.713a15.769 15.769 0 0 0 -16.038 15.2c0 10.538 16.038 37.761 16.038 37.761s16.038-27.223 16.038-37.761a15.773 15.773 0 0 0 -16.038-15.2z" transform="translate(188.271 -860.278)"/><path d="m297.606 932.75a140.121 140.121 0 0 0 -97.426-38.262 142.625 142.625 0 0 0 -53.466 10.249 137.294 137.294 0 0 0 -43.654 27.953 129.883 129.883 0 0 0 -29.431 41.457 124.2 124.2 0 0 0 -10.823 50.806 127.939 127.939 0 0 0 33.787 86.547 136.079 136.079 0 0 0 70.265 40.56l-.021 72.724 23.687-10.806a338.664 338.664 0 0 0 72.737-47.923 243.414 243.414 0 0 0 50.566-58.719 159.362 159.362 0 0 0 23.642-82.316 126.64 126.64 0 0 0 -39.863-92.27zm-12.306 158.728a210.261 210.261 0 0 1 -43.637 50.8 318.664 318.664 0 0 1 -41.53 30.8v-47.5s-52.454-5.027-78.62-34.674a99.648 99.648 0 0 1 -25.672-65.947 97.163 97.163 0 0 1 .869-12.749h.052c4.356-31.242 28.332-47.882 53.542-47.871a53.613 53.613 0 0 1 49.839 32.306 53.642 53.642 0 0 1 49.867-32.285 52.948 52.948 0 0 1 53.156 45.615v-.6a95.5 95.5 0 0 1 1.259 15.645 129.427 129.427 0 0 1 -19.126 66.472z" transform="translate(101.847 -952.483)"/><path d="m92.477 925.576a22.977 22.977 0 0 0 -10.277 25.724 4.172 4.172 0 0 0 8.031-2.215 14.585 14.585 0 0 1 23.572-14.926 4.17 4.17 0 0 0 5.657-.212l.219-.219a4.17 4.17 0 0 0 -.428-5.876 22.887 22.887 0 0 0 -26.774-2.276z" transform="translate(147.869 -883.62)"/><path d="m140.3 925.579a22.875 22.875 0 0 0 -26.775 2.27 4.175 4.175 0 0 0 -.449 5.858l.223.219a4.169 4.169 0 0 0 5.653.208 14.6 14.6 0 0 1 23.583 14.936 4.172 4.172 0 0 0 8.031 2.215 22.993 22.993 0 0 0 -10.266-25.706z" transform="translate(223.893 -883.62)"/></g></svg>